<mxfile host="app.diagrams.net" modified="2023-06-01T05:24:04.345Z" agent="Mozilla/5.0 (Windows NT 10.0; Win64; x64) AppleWebKit/537.36 (KHTML, like Gecko) Chrome/115.0.0.0 Safari/537.36 Edg/115.0.0.0" etag="8MEuKZt2QW5ib7uz3Qmp" version="21.3.6" type="github">
  <diagram name="Page-1" id="NlF8WP0hre4RFLIRDRxA">
    <mxGraphModel dx="1339" dy="790" grid="1" gridSize="10" guides="1" tooltips="1" connect="1" arrows="1" fold="1" page="1" pageScale="1" pageWidth="850" pageHeight="1100" math="0" shadow="0">
      <root>
        <mxCell id="0" />
        <mxCell id="1" parent="0" />
        <mxCell id="evn2XHRo-gEDotEbOlT9-27" style="edgeStyle=orthogonalEdgeStyle;rounded=0;orthogonalLoop=1;jettySize=auto;html=1;entryX=0;entryY=0.5;entryDx=0;entryDy=0;" parent="1" source="evn2XHRo-gEDotEbOlT9-1" target="evn2XHRo-gEDotEbOlT9-2" edge="1">
          <mxGeometry relative="1" as="geometry" />
        </mxCell>
        <mxCell id="evn2XHRo-gEDotEbOlT9-1" value="&lt;font face=&quot;Times New Roman&quot;&gt;data&lt;/font&gt;" style="shape=cylinder3;whiteSpace=wrap;html=1;boundedLbl=1;backgroundOutline=1;size=15;" parent="1" vertex="1">
          <mxGeometry x="25" y="210" width="60" height="80" as="geometry" />
        </mxCell>
        <mxCell id="evn2XHRo-gEDotEbOlT9-28" style="edgeStyle=orthogonalEdgeStyle;rounded=0;orthogonalLoop=1;jettySize=auto;html=1;entryX=0;entryY=0.5;entryDx=0;entryDy=0;" parent="1" source="evn2XHRo-gEDotEbOlT9-2" target="evn2XHRo-gEDotEbOlT9-37" edge="1">
          <mxGeometry relative="1" as="geometry">
            <mxPoint x="315" y="250" as="targetPoint" />
          </mxGeometry>
        </mxCell>
        <mxCell id="evn2XHRo-gEDotEbOlT9-2" value="&lt;i&gt;&lt;font face=&quot;Times New Roman&quot;&gt;pre-processing&lt;/font&gt;&lt;/i&gt;" style="shape=process;whiteSpace=wrap;html=1;backgroundOutline=1;" parent="1" vertex="1">
          <mxGeometry x="145" y="220" width="120" height="60" as="geometry" />
        </mxCell>
        <mxCell id="evn2XHRo-gEDotEbOlT9-36" style="edgeStyle=orthogonalEdgeStyle;rounded=0;orthogonalLoop=1;jettySize=auto;html=1;exitX=1;exitY=0.5;exitDx=0;exitDy=0;" parent="1" source="evn2XHRo-gEDotEbOlT9-37" target="evn2XHRo-gEDotEbOlT9-5" edge="1">
          <mxGeometry relative="1" as="geometry">
            <mxPoint x="435" y="250" as="sourcePoint" />
          </mxGeometry>
        </mxCell>
        <mxCell id="evn2XHRo-gEDotEbOlT9-5" value="&lt;i&gt;&lt;font face=&quot;Times New Roman&quot;&gt;evaluate&lt;/font&gt;&lt;/i&gt;" style="rounded=0;whiteSpace=wrap;html=1;" parent="1" vertex="1">
          <mxGeometry x="485" y="220" width="120" height="60" as="geometry" />
        </mxCell>
        <mxCell id="evn2XHRo-gEDotEbOlT9-25" style="edgeStyle=orthogonalEdgeStyle;rounded=0;orthogonalLoop=1;jettySize=auto;html=1;" parent="1" source="evn2XHRo-gEDotEbOlT9-21" target="evn2XHRo-gEDotEbOlT9-22" edge="1">
          <mxGeometry relative="1" as="geometry" />
        </mxCell>
        <mxCell id="evn2XHRo-gEDotEbOlT9-21" value="&lt;i&gt;&lt;font face=&quot;Times New Roman&quot;&gt;rescale/resize&lt;/font&gt;&lt;/i&gt;" style="rounded=0;whiteSpace=wrap;html=1;" parent="1" vertex="1">
          <mxGeometry x="25" y="450.25" width="120" height="60" as="geometry" />
        </mxCell>
        <mxCell id="evn2XHRo-gEDotEbOlT9-26" style="edgeStyle=orthogonalEdgeStyle;rounded=0;orthogonalLoop=1;jettySize=auto;html=1;" parent="1" source="evn2XHRo-gEDotEbOlT9-22" target="evn2XHRo-gEDotEbOlT9-23" edge="1">
          <mxGeometry relative="1" as="geometry" />
        </mxCell>
        <mxCell id="evn2XHRo-gEDotEbOlT9-22" value="&lt;i&gt;&lt;font face=&quot;Times New Roman&quot;&gt;normalization&lt;/font&gt;&lt;/i&gt;" style="rounded=0;whiteSpace=wrap;html=1;" parent="1" vertex="1">
          <mxGeometry x="200" y="450.25" width="120" height="60" as="geometry" />
        </mxCell>
        <mxCell id="evn2XHRo-gEDotEbOlT9-23" value="&lt;i&gt;&lt;font face=&quot;Times New Roman&quot;&gt;augmentation&lt;br&gt;(optional)&lt;/font&gt;&lt;/i&gt;" style="rounded=0;whiteSpace=wrap;html=1;" parent="1" vertex="1">
          <mxGeometry x="380" y="450.25" width="120" height="60" as="geometry" />
        </mxCell>
        <mxCell id="evn2XHRo-gEDotEbOlT9-24" value="&lt;font face=&quot;Times New Roman&quot;&gt;pre-processing&lt;/font&gt;" style="rounded=0;whiteSpace=wrap;html=1;" parent="1" vertex="1">
          <mxGeometry x="25" y="390" width="120" height="20" as="geometry" />
        </mxCell>
        <mxCell id="evn2XHRo-gEDotEbOlT9-37" value="&lt;font face=&quot;Times New Roman&quot;&gt;transfer learning&lt;/font&gt;" style="rounded=0;whiteSpace=wrap;html=1;" parent="1" vertex="1">
          <mxGeometry x="315" y="220" width="120" height="60" as="geometry" />
        </mxCell>
      </root>
    </mxGraphModel>
  </diagram>
</mxfile>
